<?xml version="1.0" standalone="no"?>
<!DOCTYPE svg PUBLIC "-//W3C//DTD SVG 20010904//EN"
 "http://www.w3.org/TR/2001/REC-SVG-20010904/DTD/svg10.dtd">
<svg version="1.0" xmlns="http://www.w3.org/2000/svg"
 width="700.000000pt" height="700.000000pt" viewBox="0 0 700.000000 700.000000"
 preserveAspectRatio="xMidYMid meet">
<metadata>
Created by potrace 1.14, written by Peter Selinger 2001-2017
</metadata>
<g transform="translate(0.000000,700.000000) scale(0.100000,-0.100000)"
fill="#000000" stroke="none">
<path d="M3357 6624 c-1 -1 -45 -5 -97 -9 -111 -8 -122 -9 -175 -18 -22 -4
-58 -9 -80 -12 -63 -9 -106 -16 -129 -22 -11 -2 -39 -8 -61 -13 -102 -21 -353
-96 -420 -125 -16 -7 -57 -23 -90 -36 -217 -85 -536 -271 -726 -425 -44 -35
-81 -64 -83 -64 -5 0 -142 -129 -220 -206 -56 -55 -144 -152 -195 -214 -68
-83 -130 -168 -203 -279 -36 -54 -162 -271 -164 -281 0 -3 -24 -53 -52 -113
-29 -59 -52 -110 -52 -113 0 -3 -6 -20 -14 -37 -36 -81 -120 -346 -141 -447
-29 -137 -38 -187 -50 -277 -3 -21 -7 -51 -10 -68 -24 -169 -23 -601 1 -740 3
-16 7 -55 7 -87 1 -31 5 -54 8 -52 3 2 12 -29 19 -69 7 -40 26 -124 42 -187
16 -63 30 -119 32 -125 5 -21 38 -121 46 -140 5 -11 16 -42 26 -70 9 -27 21
-54 26 -60 4 -5 8 -15 8 -23 0 -26 89 -207 179 -365 31 -54 63 -110 71 -125 8
-15 17 -29 21 -32 3 -3 21 -27 40 -55 18 -27 37 -54 42 -60 4 -5 21 -28 37
-50 39 -53 41 -54 73 -95 110 -137 309 -337 432 -435 20 -16 48 -39 60 -50 13
-11 32 -26 42 -33 10 -7 41 -28 68 -48 178 -128 384 -245 585 -333 80 -36 275
-108 325 -121 17 -4 84 -22 150 -40 66 -17 138 -33 160 -36 22 -3 56 -9 75
-14 19 -4 62 -11 95 -15 32 -4 68 -9 78 -11 84 -16 433 -23 567 -12 142 12
201 18 224 23 20 4 65 11 131 21 17 2 39 6 50 8 60 13 162 37 175 41 12 4 59
16 105 28 32 9 124 41 150 52 17 7 44 17 60 21 17 4 64 23 105 41 41 18 84 37
95 42 36 16 139 68 175 88 19 11 62 35 95 54 335 187 696 511 937 840 59 81
156 227 178 269 7 14 16 27 19 30 12 10 121 229 166 335 56 132 125 337 155
460 35 149 39 168 49 230 6 33 13 78 16 100 7 42 9 56 21 195 13 149 6 510
-11 600 -2 9 -6 41 -10 71 -11 83 -34 211 -40 217 -3 3 1 12 8 20 9 13 9 14 0
8 -8 -4 -13 -2 -14 6 0 7 -2 20 -4 28 -10 39 -16 66 -19 75 -2 6 -6 24 -10 40
-24 93 -113 340 -166 456 -62 139 -177 351 -192 357 -4 2 -8 8 -8 14 0 5 -13
29 -30 53 -16 24 -30 46 -30 50 0 4 -6 12 -12 19 -7 7 -22 25 -33 40 -141 195
-260 328 -430 486 -142 131 -432 350 -464 350 -5 0 -11 4 -13 8 -11 27 -332
188 -498 251 -63 24 -124 47 -135 51 -43 18 -270 81 -335 94 -124 25 -214 40
-305 52 -86 11 -498 26 -508 18z"/>
</g>
</svg>
