<svg id="Layer_1" data-name="Layer 1" xmlns="http://www.w3.org/2000/svg" viewBox="0 0 197.5 25.3"><defs><style>.cls-1{isolation:isolate;}.cls-2{fill:#fefdfd;}</style></defs><g id="desktop-logo"><g id="James-Rawding" class="cls-1"><g class="cls-1"><path class="cls-2" d="M149.32,94.63a10,10,0,0,1-2.6-.34,6.54,6.54,0,0,1-2.19-1.05,5.33,5.33,0,0,1-1.53-1.8,6,6,0,0,1-.62-2.54.57.57,0,0,1,.17-.41.54.54,0,0,1,.43-.18h1.46a.64.64,0,0,1,.47.18.81.81,0,0,1,.23.44,3.32,3.32,0,0,0,2.21,3,5.51,5.51,0,0,0,2,.35A3.78,3.78,0,0,0,152.51,91a5.57,5.57,0,0,0,1.08-3.59V77.81H144a.57.57,0,0,1-.44-.18.59.59,0,0,1-.18-.44V76.08a.61.61,0,0,1,.18-.45.6.6,0,0,1,.44-.17h11.64a.6.6,0,0,1,.65.65V87.45a8.16,8.16,0,0,1-.84,3.8,6,6,0,0,1-2.37,2.5A7.55,7.55,0,0,1,149.32,94.63Z" transform="translate(-142.38 -75)"/><path class="cls-2" d="M164.28,94.63a5.55,5.55,0,0,1-2.46-.54A4.75,4.75,0,0,1,160,92.63a3.42,3.42,0,0,1-.67-2.08,3.49,3.49,0,0,1,1.51-3,8.73,8.73,0,0,1,3.94-1.46l4-.56v-.79a2.67,2.67,0,0,0-.74-2,3.34,3.34,0,0,0-2.42-.73,3.52,3.52,0,0,0-2,.48,2.61,2.61,0,0,0-1,1.25.57.57,0,0,1-.57.4h-1.21a.58.58,0,0,1-.45-.17.64.64,0,0,1-.15-.42,2.34,2.34,0,0,1,.31-1,4.17,4.17,0,0,1,1-1.16,5.5,5.5,0,0,1,1.66-1,6.92,6.92,0,0,1,2.47-.39,7.76,7.76,0,0,1,2.73.42,4.33,4.33,0,0,1,1.74,1.12,4.23,4.23,0,0,1,.92,1.59,5.9,5.9,0,0,1,.28,1.81v8.75a.6.6,0,0,1-.17.44.61.61,0,0,1-.45.18h-1.24a.59.59,0,0,1-.46-.18.6.6,0,0,1-.16-.44V92.58a5,5,0,0,1-1,1,4.93,4.93,0,0,1-1.48.79A7,7,0,0,1,164.28,94.63Zm.57-2a4.29,4.29,0,0,0,2-.47,3.38,3.38,0,0,0,1.45-1.47,5.37,5.37,0,0,0,.52-2.51v-.76l-3.13.46a7.29,7.29,0,0,0-2.89.9,1.88,1.88,0,0,0-1,1.61,1.82,1.82,0,0,0,.45,1.26,2.63,2.63,0,0,0,1.13.74A4.28,4.28,0,0,0,164.85,92.6Z" transform="translate(-142.38 -75)"/><path class="cls-2" d="M175.89,94.36a.61.61,0,0,1-.45-.18.6.6,0,0,1-.17-.44V80.94a.58.58,0,0,1,.62-.62h1.22a.62.62,0,0,1,.44.17.61.61,0,0,1,.18.45v.94a4.57,4.57,0,0,1,1.56-1.33,4.73,4.73,0,0,1,2.27-.5,4.41,4.41,0,0,1,4.32,2.48,4.63,4.63,0,0,1,1.81-1.81,5.36,5.36,0,0,1,2.7-.67,5,5,0,0,1,2.55.65,4.46,4.46,0,0,1,1.81,2,7.29,7.29,0,0,1,.66,3.28v7.81a.6.6,0,0,1-.17.44.61.61,0,0,1-.45.18h-1.27a.61.61,0,0,1-.62-.62V86.18a5.39,5.39,0,0,0-.43-2.38,2.6,2.6,0,0,0-1.16-1.22,3.71,3.71,0,0,0-1.6-.35,3.38,3.38,0,0,0-1.43.35,2.83,2.83,0,0,0-1.2,1.22,5.07,5.07,0,0,0-.47,2.38v7.56a.61.61,0,0,1-.62.62h-1.27a.61.61,0,0,1-.45-.18.6.6,0,0,1-.17-.44V86.18a5.08,5.08,0,0,0-.46-2.38,2.71,2.71,0,0,0-1.19-1.22,3.58,3.58,0,0,0-1.54-.35,3.34,3.34,0,0,0-1.43.35,2.77,2.77,0,0,0-1.2,1.22,4.88,4.88,0,0,0-.47,2.35v7.59a.57.57,0,0,1-.18.44.59.59,0,0,1-.44.18Z" transform="translate(-142.38 -75)"/><path class="cls-2" d="M204.86,94.63a5.84,5.84,0,0,1-4.43-1.72,7,7,0,0,1-1.81-4.68c0-.23,0-.54,0-.91s0-.67,0-.9a8,8,0,0,1,.89-3.36,5.57,5.57,0,0,1,2.15-2.23,6.35,6.35,0,0,1,3.2-.78,6.43,6.43,0,0,1,3.44.86,5.49,5.49,0,0,1,2.12,2.46,8.79,8.79,0,0,1,.73,3.72v.46A.62.62,0,0,1,211,88a.64.64,0,0,1-.45.16h-9.34v.25a5.65,5.65,0,0,0,.48,2.06A3.92,3.92,0,0,0,202.92,92a3.21,3.21,0,0,0,1.94.59,3.84,3.84,0,0,0,1.62-.3,4.32,4.32,0,0,0,1.59-1.21,1.34,1.34,0,0,1,.38-.42,1,1,0,0,1,.43-.07h1.3a.63.63,0,0,1,.44.15.45.45,0,0,1,.15.42,2,2,0,0,1-.43,1,5.27,5.27,0,0,1-1.16,1.15,6.35,6.35,0,0,1-1.84.93A7.52,7.52,0,0,1,204.86,94.63Zm-3.67-8.32h7.4v-.08a5,5,0,0,0-.45-2.16,3.6,3.6,0,0,0-1.28-1.5,3.55,3.55,0,0,0-2-.55,3.44,3.44,0,0,0-2,.55,3.56,3.56,0,0,0-1.26,1.5,5.11,5.11,0,0,0-.43,2.16Z" transform="translate(-142.38 -75)"/><path class="cls-2" d="M219.25,94.63a7.91,7.91,0,0,1-2.59-.38,5.73,5.73,0,0,1-1.75-.92,4.6,4.6,0,0,1-1-1.08,2.25,2.25,0,0,1-.36-.86.47.47,0,0,1,.19-.46.68.68,0,0,1,.43-.16h1.19a.6.6,0,0,1,.25,0,.69.69,0,0,1,.26.23,9.38,9.38,0,0,0,.78.75,3.58,3.58,0,0,0,1.07.62,4.26,4.26,0,0,0,1.58.25,4.43,4.43,0,0,0,2.27-.53,1.7,1.7,0,0,0,.89-1.55,1.52,1.52,0,0,0-.37-1.08,3,3,0,0,0-1.29-.73,23,23,0,0,0-2.55-.68,9.31,9.31,0,0,1-2.57-.93,3.43,3.43,0,0,1-1.35-1.32,3.66,3.66,0,0,1-.4-1.74,3.49,3.49,0,0,1,.59-1.93,4.51,4.51,0,0,1,1.74-1.53,6.31,6.31,0,0,1,2.88-.59,7.41,7.41,0,0,1,2.4.35,5.25,5.25,0,0,1,1.65.88,4.39,4.39,0,0,1,1,1,2.12,2.12,0,0,1,.35.86.5.5,0,0,1-.16.44.61.61,0,0,1-.43.18h-1.14a.59.59,0,0,1-.31-.08,1.37,1.37,0,0,1-.23-.19,6.63,6.63,0,0,0-.63-.7,2.78,2.78,0,0,0-1-.58,4.05,4.05,0,0,0-1.52-.23,3.15,3.15,0,0,0-2,.56,1.8,1.8,0,0,0-.67,1.44,1.54,1.54,0,0,0,.29.91,2.49,2.49,0,0,0,1.14.73,19.68,19.68,0,0,0,2.48.71,9.28,9.28,0,0,1,2.81.94,3.83,3.83,0,0,1,1.46,1.38A3.64,3.64,0,0,1,225,90.5a3.57,3.57,0,0,1-.66,2.08,4.35,4.35,0,0,1-2,1.49A8,8,0,0,1,219.25,94.63Z" transform="translate(-142.38 -75)"/><path class="cls-2" d="M235.75,94.36a.59.59,0,0,1-.46-.18.6.6,0,0,1-.16-.44V76.11a.68.68,0,0,1,.16-.48.62.62,0,0,1,.46-.17h6.59a7.47,7.47,0,0,1,4.83,1.43A5.11,5.11,0,0,1,249,81.13a5,5,0,0,1-3.86,5.21l4.16,7.18a.75.75,0,0,1,.08.3.51.51,0,0,1-.18.38.57.57,0,0,1-.39.16h-1.29a.85.85,0,0,1-.68-.25,5.31,5.31,0,0,1-.38-.48l-3.91-6.86h-4.73v7a.6.6,0,0,1-.17.44.64.64,0,0,1-.47.18Zm2-9.88h4.46a4.54,4.54,0,0,0,3-.86,3.09,3.09,0,0,0,1-2.52,3.18,3.18,0,0,0-1-2.51,4.5,4.5,0,0,0-3-.86h-4.46Z" transform="translate(-142.38 -75)"/><path class="cls-2" d="M256.38,94.63a5.55,5.55,0,0,1-2.46-.54,4.75,4.75,0,0,1-1.78-1.46,3.43,3.43,0,0,1-.68-2.08,3.52,3.52,0,0,1,1.51-3,8.77,8.77,0,0,1,4-1.46l4-.56v-.79a2.71,2.71,0,0,0-.74-2,3.35,3.35,0,0,0-2.42-.73,3.58,3.58,0,0,0-2,.48,2.67,2.67,0,0,0-1,1.25.56.56,0,0,1-.56.4H253a.56.56,0,0,1-.44-.17.64.64,0,0,1-.15-.42,2.21,2.21,0,0,1,.31-1,3.84,3.84,0,0,1,1-1.16,5.37,5.37,0,0,1,1.66-1,6.88,6.88,0,0,1,2.47-.39,7.66,7.66,0,0,1,2.72.42,4.45,4.45,0,0,1,1.75,1.12,4.21,4.21,0,0,1,.91,1.59,5.91,5.91,0,0,1,.29,1.81v8.75a.57.57,0,0,1-.18.44.59.59,0,0,1-.44.18h-1.25a.57.57,0,0,1-.45-.18.6.6,0,0,1-.17-.44V92.58a4.94,4.94,0,0,1-.94,1,5,5,0,0,1-1.49.79A6.85,6.85,0,0,1,256.38,94.63Zm.56-2a4.31,4.31,0,0,0,2-.47,3.36,3.36,0,0,0,1.44-1.47,5.36,5.36,0,0,0,.53-2.51v-.76l-3.13.46a7.29,7.29,0,0,0-2.89.9,1.88,1.88,0,0,0-1,1.61,1.81,1.81,0,0,0,.44,1.26,2.72,2.72,0,0,0,1.14.74A4.26,4.26,0,0,0,256.94,92.6Z" transform="translate(-142.38 -75)"/><path class="cls-2" d="M271,94.36a.73.73,0,0,1-.54-.18,1.28,1.28,0,0,1-.33-.5l-3.83-12.53a.65.65,0,0,1,0-.27.51.51,0,0,1,.17-.4.56.56,0,0,1,.39-.16H268a.61.61,0,0,1,.46.16.82.82,0,0,1,.21.3l3,10.18,3.21-10.08a1.07,1.07,0,0,1,.23-.37.69.69,0,0,1,.53-.19h.92a.74.74,0,0,1,.76.56L280.57,91l3-10.18a.61.61,0,0,1,.64-.46h1.19a.56.56,0,0,1,.41.16.58.58,0,0,1,.16.4.66.66,0,0,1-.06.27l-3.83,12.53a.9.9,0,0,1-.28.5.86.86,0,0,1-.58.18h-1.06a.93.93,0,0,1-.58-.18.88.88,0,0,1-.31-.5L276.14,84,273,93.68a1,1,0,0,1-.33.5.89.89,0,0,1-.59.18Z" transform="translate(-142.38 -75)"/><path class="cls-2" d="M293.72,94.63a5.83,5.83,0,0,1-2.57-.53,4.89,4.89,0,0,1-1.77-1.43,6.07,6.07,0,0,1-1-2.07,9.73,9.73,0,0,1-.39-2.45q0-.44,0-.81t0-.81a9.64,9.64,0,0,1,.39-2.43,6.21,6.21,0,0,1,1-2.08,4.84,4.84,0,0,1,1.77-1.45,5.84,5.84,0,0,1,2.57-.52,5.61,5.61,0,0,1,2.64.56A5.52,5.52,0,0,1,298.09,82V75.81a.61.61,0,0,1,.18-.45.6.6,0,0,1,.44-.17H300a.6.6,0,0,1,.44.17.61.61,0,0,1,.18.45V93.74a.61.61,0,0,1-.62.62h-1.22a.59.59,0,0,1-.46-.18.64.64,0,0,1-.16-.44V92.6a5.46,5.46,0,0,1-1.75,1.45A5.74,5.74,0,0,1,293.72,94.63Zm.56-2.19a3.48,3.48,0,0,0,2.16-.62,3.82,3.82,0,0,0,1.22-1.58,5.4,5.4,0,0,0,.43-2c0-.28,0-.63,0-1s0-.75,0-1a5,5,0,0,0-.44-1.86,3.74,3.74,0,0,0-1.25-1.51,3.5,3.5,0,0,0-2.12-.6,3.59,3.59,0,0,0-2.18.61,3.37,3.37,0,0,0-1.16,1.59,7.32,7.32,0,0,0-.41,2.12c0,.53,0,1,0,1.57a7.25,7.25,0,0,0,.41,2.12,3.27,3.27,0,0,0,1.16,1.59A3.53,3.53,0,0,0,294.28,92.44Z" transform="translate(-142.38 -75)"/><path class="cls-2" d="M305.06,77.7a.61.61,0,0,1-.45-.18.57.57,0,0,1-.17-.44V75.62a.6.6,0,0,1,.17-.45.64.64,0,0,1,.45-.17h1.7a.6.6,0,0,1,.44.17.61.61,0,0,1,.18.45v1.46a.61.61,0,0,1-.62.62Zm.21,16.66a.61.61,0,0,1-.62-.62V80.94a.61.61,0,0,1,.18-.45.6.6,0,0,1,.44-.17h1.3a.58.58,0,0,1,.43.17.64.64,0,0,1,.16.45v12.8a.6.6,0,0,1-.16.44.55.55,0,0,1-.43.18Z" transform="translate(-142.38 -75)"/><path class="cls-2" d="M312.05,94.36a.61.61,0,0,1-.45-.18.6.6,0,0,1-.17-.44V80.94a.58.58,0,0,1,.62-.62h1.27a.6.6,0,0,1,.44.17.61.61,0,0,1,.18.45v1.19a5.49,5.49,0,0,1,1.77-1.5,5.65,5.65,0,0,1,2.74-.58,5.44,5.44,0,0,1,3,.77A4.75,4.75,0,0,1,323.28,83a7.66,7.66,0,0,1,.62,3.17v7.62a.6.6,0,0,1-.16.44.55.55,0,0,1-.43.18H322a.61.61,0,0,1-.45-.18.6.6,0,0,1-.17-.44V86.26a4.41,4.41,0,0,0-.92-3,3.37,3.37,0,0,0-2.7-1.07A3.55,3.55,0,0,0,315,83.3a4.15,4.15,0,0,0-1,3v7.48a.61.61,0,0,1-.62.62Z" transform="translate(-142.38 -75)"/><path class="cls-2" d="M333.54,100.3a7.83,7.83,0,0,1-3-.49,5.3,5.3,0,0,1-1.84-1.17,4.52,4.52,0,0,1-.94-1.38,3.77,3.77,0,0,1-.31-1.09.53.53,0,0,1,.17-.46.65.65,0,0,1,.45-.19h1.3a.65.65,0,0,1,.4.11.79.79,0,0,1,.27.45,4.86,4.86,0,0,0,.49.91,2.61,2.61,0,0,0,1,.86,3.94,3.94,0,0,0,1.89.37,5.8,5.8,0,0,0,2.13-.34,2.45,2.45,0,0,0,1.31-1.19,5,5,0,0,0,.44-2.33V92.52a5.11,5.11,0,0,1-1.7,1.39,5.61,5.61,0,0,1-2.64.56,5.91,5.91,0,0,1-2.6-.53,4.77,4.77,0,0,1-1.76-1.43,6.28,6.28,0,0,1-1-2.07,10.12,10.12,0,0,1-.39-2.43c0-.5,0-1,0-1.48a10.12,10.12,0,0,1,.39-2.43,6.43,6.43,0,0,1,1-2.08,4.72,4.72,0,0,1,1.76-1.45,5.91,5.91,0,0,1,2.6-.52,5.29,5.29,0,0,1,2.68.61,5.88,5.88,0,0,1,1.75,1.47V81a.63.63,0,0,1,.17-.46.58.58,0,0,1,.45-.19h1.24a.62.62,0,0,1,.46.19.64.64,0,0,1,.19.46V94.06a8.06,8.06,0,0,1-.61,3.21,4.67,4.67,0,0,1-2,2.22A7.41,7.41,0,0,1,333.54,100.3Zm-.05-8a3.47,3.47,0,0,0,2.17-.63,3.74,3.74,0,0,0,1.22-1.56,5.21,5.21,0,0,0,.41-1.92q0-.37,0-.93t0-.93a5.21,5.21,0,0,0-.41-1.92,3.74,3.74,0,0,0-1.22-1.56,3.47,3.47,0,0,0-2.17-.63,3.55,3.55,0,0,0-2.16.61,3.37,3.37,0,0,0-1.16,1.59,7.32,7.32,0,0,0-.41,2.12q0,.7,0,1.44a7.19,7.19,0,0,0,.41,2.11,3.35,3.35,0,0,0,1.16,1.6A3.55,3.55,0,0,0,333.49,92.31Z" transform="translate(-142.38 -75)"/></g></g></g></svg>