<svg xmlns="http://www.w3.org/2000/svg" xmlns:xlink="http://www.w3.org/1999/xlink" version="1.1" viewBox="0 -189 882 1008">
  <g transform="matrix(1 0 0 -1 0 819)">
   <path fill="currentColor" d="M626 -5h130v232c0 115 -24 201 -156 201c-63 0 -106 -35 -124 -69h-2v57h-126v-421h130v209c0 55 10 108 79 108c67 0 69 -63 69 -112v-205zM201 473c41 0 75 34 75 75c0 42 -34 75 -75 75c-42 0 -75 -33 -75 -75c0 -41 33 -75 75 -75zM136 -5h130v421h-130v-421zM63 755 h756v-4c35 0 63 -27 63 -63v-754c0 -35 -28 -63 -63 -63h-756c-35 0 -63 30 -63 65v754c0 35 28 65 63 65z"/>
  </g>
</svg>
