<?xml version="1.0" encoding="UTF-8"?>
<svg width="50px" height="50px" viewBox="0 0 50 50" version="1.1" xmlns="http://www.w3.org/2000/svg" xmlns:xlink="http://www.w3.org/1999/xlink">
    <title>Logo</title>
    <defs>
        <filter x="-15.0%" y="-15.0%" width="130.0%" height="130.0%" filterUnits="objectBoundingBox" id="filter-1">
            <feOffset dx="0" dy="0" in="SourceAlpha" result="shadowOffsetOuter1"></feOffset>
            <feGaussianBlur stdDeviation="1.5" in="shadowOffsetOuter1" result="shadowBlurOuter1"></feGaussianBlur>
            <feColorMatrix values="0 0 0 0 0.149019608   0 0 0 0 0.149019608   0 0 0 0 0.149019608  0 0 0 0.0442304278 0" type="matrix" in="shadowBlurOuter1" result="shadowMatrixOuter1"></feColorMatrix>
            <feMerge>
                <feMergeNode in="shadowMatrixOuter1"></feMergeNode>
                <feMergeNode in="SourceGraphic"></feMergeNode>
            </feMerge>
        </filter>
        <circle id="path-2" cx="25" cy="25" r="25"></circle>
        <filter x="-3.0%" y="-3.0%" width="106.0%" height="106.0%" filterUnits="objectBoundingBox" id="filter-3">
            <feOffset dx="0" dy="0" in="SourceAlpha" result="shadowOffsetOuter1"></feOffset>
            <feGaussianBlur stdDeviation="0.5" in="shadowOffsetOuter1" result="shadowBlurOuter1"></feGaussianBlur>
            <feColorMatrix values="0 0 0 0 0.149019608   0 0 0 0 0.149019608   0 0 0 0 0.149019608  0 0 0 0.0501504111 0" type="matrix" in="shadowBlurOuter1"></feColorMatrix>
        </filter>
    </defs>
    <g id="Logo" stroke="none" stroke-width="1" fill="none" fill-rule="evenodd">
        <g id="Asset-2" filter="url(#filter-1)" fill-rule="nonzero">
            <g id="Oval">
                <use fill="black" fill-opacity="1" filter="url(#filter-3)" xlink:href="#path-2"></use>
                <use fill="#FEFDFD" xlink:href="#path-2"></use>
            </g>
            <path d="M39.7368421,34.9052632 L34.8736842,26.5052632 C36.1723149,26.1636154 37.3282552,25.4169553 38.1736842,24.3736842 C38.9842105,23.3526316 39.3894737,22.0315789 39.3894737,20.4105263 C39.3894737,18.2210526 38.6947368,16.5684211 37.3052632,15.4526316 C35.9157895,14.3368421 34.0315789,13.7789474 31.6526316,13.7789474 L13.6342105,13.7789474 C13.4396091,13.7722694 13.2509624,13.8466451 13.1132774,13.98433 C12.9755925,14.122015 12.9012167,14.3106618 12.9078947,14.5052632 L12.9078947,15.7894737 C12.9012167,15.9840751 12.9755925,16.1727218 13.1132774,16.3104068 C13.2509624,16.4480918 13.4396091,16.5224675 13.6342105,16.5157895 L23.2657895,16.5157895 L23.2657895,27.7263158 C23.2657895,29.4807018 22.8447368,30.8842105 22.0026316,31.9368421 C21.1605263,32.9894737 19.9394737,33.5157895 18.3394737,33.5157895 C17.5314881,33.5255566 16.7286162,33.3863921 15.9710526,33.1052632 C15.2794755,32.845768 14.6710943,32.403805 14.2105263,31.8263158 C13.7154703,31.161673 13.4296309,30.364621 13.3894737,29.5368421 C13.3569983,29.3388278 13.265242,29.1553153 13.1263158,29.0105263 C12.9780117,28.8692743 12.7782383,28.7950728 12.5736842,28.8052632 L10.8552632,28.8052632 C10.6650174,28.7970173 10.4805948,28.8719389 10.35,29.0105263 C10.2255097,29.1427841 10.1575319,29.3183934 10.1604314,29.5 C10.1763713,30.5314969 10.4246351,31.5461404 10.8868421,32.4684211 C11.3144984,33.2962214 11.9245795,34.0160811 12.6710526,34.5736842 C13.4386622,35.1413907 14.3064626,35.5592206 15.2289474,35.8052632 C16.2224054,36.0730725 17.2474102,36.2058452 18.2763158,36.2001849 C20.0026316,36.2001849 21.4657895,35.8578947 22.6657895,35.1736842 C23.8600885,34.4955973 24.8270049,33.4792364 25.4447368,32.2526316 C26.1247385,30.8688693 26.4605704,29.3413759 26.4236842,27.8 L26.4236842,27.0105263 L31.8421053,27.0105263 L36.4210526,35.0315789 C36.5551156,35.2310363 36.7028378,35.4209648 36.8631579,35.6 C37.0723076,35.8052846 37.3606266,35.9090794 37.6526316,35.8842105 L39.1684211,35.8842105 C39.339858,35.8828702 39.5040575,35.8149256 39.6263158,35.6947368 C39.7558831,35.5843139 39.8308402,35.4228678 39.8315789,35.2526316 C39.8271781,35.1310906 39.794756,35.0122097 39.7368421,34.9052632 Z M31.5263158,24.3263158 L26.4236842,24.3263158 L26.4236842,16.4315789 L31.5342105,16.4315789 C33.1342105,16.4315789 34.3184211,16.7684211 35.0868421,17.4421053 C35.8552632,18.1157895 36.2394737,19.0947368 36.2394737,20.3789474 C36.2394737,21.6842105 35.85,22.6684211 35.0710526,23.3315789 C34.2921053,23.9947368 33.1131579,24.3263158 31.5342105,24.3263158 L31.5263158,24.3263158 Z" id="Shape" fill="#262626"></path>
            <rect id="Rectangle" fill="#262626" x="19.4736842" y="24.3421053" width="5.26315789" height="2.63157895" rx="1.31578947"></rect>
        </g>
    </g>
</svg>